# xmcd
# 
# Track frame offsets:
#     150
#     15301
#     33274
#     49343
#     72795
#     87973
#     101410
#     117273
#     130785
#     144931
#     162603
# 
# Disc length: 2298
# 
# Revision: 0
# Processed by: cddbd v1.5.2PL0 Copyright (c) Steve Scherf et al.
# Submitted via: fre:ac v1.0.17
# 
DISCID=8908f80b
DTITLE=Snake Davies - Snake Strings Volume 1
DYEAR=2011
DGENRE=Blues
TTITLE0=Marla
TTITLE1=Pavane
TTITLE2=River Deep, Mountain High
TTITLE3=Sapporo No Ame
TTITLE4=Sugarloaf
TTITLE5=A Little Respect
TTITLE6=Shiro Sunset
TTITLE7=Dr. J
TTITLE8=The Eternal Vow
TTITLE9=The Waiting
TTITLE10=Eleanor Rigby
EXTD=
EXTT0=
EXTT1=
EXTT2=
EXTT3=
EXTT4=
EXTT5=
EXTT6=
EXTT7=
EXTT8=
EXTT9=
EXTT10=
PLAYORDER=
